<svg width="448" height="512" xmlns="http://www.w3.org/2000/svg">
 <!-- Font Awesome Free 5.15.4 by @fontawesome - https://fontawesome.com License - https://fontawesome.com/license/free (Icons: CC BY 4.0, Fonts: SIL OFL 1.1, Code: MIT License) -->

 <g>
  <title>background</title>
  <rect fill="none" id="canvas_background" height="402" width="582" y="-1" x="-1"/>
 </g>
 <g>
  <title>Layer 1</title>
  <path fill="#ffffff" id="svg_1" d="m16,132l416,0c8.837,0 16,-7.163 16,-16l0,-40c0,-8.837 -7.163,-16 -16,-16l-416,0c-8.837,0 -16,7.163 -16,16l0,40c0,8.837 7.163,16 16,16zm0,160l416,0c8.837,0 16,-7.163 16,-16l0,-40c0,-8.837 -7.163,-16 -16,-16l-416,0c-8.837,0 -16,7.163 -16,16l0,40c0,8.837 7.163,16 16,16zm0,160l416,0c8.837,0 16,-7.163 16,-16l0,-40c0,-8.837 -7.163,-16 -16,-16l-416,0c-8.837,0 -16,7.163 -16,16l0,40c0,8.837 7.163,16 16,16z"/>
 </g>
</svg>